Coordinates
version=1
nRows=13
nColumns=40
inDegrees=yes

Units are S.I. units (second, meters, Newtons, ...)
Angles are in degrees.

endheader
time	pelvis_tilt	pelvis_list	pelvis_rotation	pelvis_tx	pelvis_ty	pelvis_tz	hip_flexion_r	hip_adduction_r	hip_rotation_r	knee_angle_r	knee_angle_r_beta	ankle_angle_r	subtalar_angle_r	mtp_angle_r	hip_flexion_l	hip_adduction_l	hip_rotation_l	knee_angle_l	knee_angle_l_beta	ankle_angle_l	subtalar_angle_l	mtp_angle_l	lumbar_extension	lumbar_bending	lumbar_rotation	arm_flex_r	arm_add_r	arm_rot_r	elbow_flex_r	pro_sup_r	wrist_flex_r	wrist_dev_r	arm_flex_l	arm_add_l	arm_rot_l	elbow_flex_l	pro_sup_l	wrist_flex_l	wrist_dev_l
     33.22000000	     -4.23803497	     -3.87955426	      2.45824908	      1.02767933	      0.90995118	      0.37523889	     17.02990396	     -9.29616467	     -6.39789943	     60.63925928	     60.63925928	      2.76260639	    -17.91350890	      4.34170182	     22.79904682	     -0.50788428	     -0.89908712	     35.29617695	     35.29617695	     19.76679506	    -17.95965595	      9.67567468	     -9.56495622	      4.57023649	      5.47619164	     15.22509812	    -13.31189885	    -13.90835406	     25.97282232	     46.11217352	      0.00000000	      0.00000000	     23.44047929	    -14.07121312	     14.91712894	     38.92178277	     45.71937252	      0.00000000	      0.00000000
     33.24307143	     -4.03787624	     -3.95466492	      1.79871959	      1.02729274	      0.90930998	      0.37388502	     19.23229305	     -9.08817342	     -5.59204204	     63.17127921	     63.17127921	      3.12287744	    -18.09228343	      4.16223610	     22.41625342	     -0.63909275	     -1.29532305	     35.69860318	     35.69860318	     20.31402283	    -18.16485808	      9.73831034	     -9.75889747	      4.76664591	      4.92353374	     11.75487476	    -12.88996465	    -13.84111616	     24.79075869	     46.13287238	      0.00000000	      0.00000000	     25.11653835	    -14.74751778	     14.34044261	     40.12698159	     45.81437394	      0.00000000	      0.00000000
     33.26614286	     -3.78309542	     -4.11260011	      1.08243215	      1.02690677	      0.90899414	      0.37272683	     21.33809806	     -8.65265710	     -4.73391573	     65.27564171	     65.27564171	      3.65673788	    -18.21767688	      4.75400486	     21.90488897	     -0.87405867	     -1.71157384	     36.01993294	     36.01993294	     20.99792128	    -18.31407878	     10.05810624	    -10.11433830	      5.00555206	      4.79368316	      7.75512730	    -12.68526717	    -13.70200571	     24.01762247	     46.12650053	      0.00000000	      0.00000000	     26.84191478	    -15.28196715	     13.29661335	     42.14927623	     45.96931276	      0.00000000	      0.00000000
     33.28921429	     -3.53685272	     -4.26828994	      0.32431808	      1.02644336	      0.90911172	      0.37178488	     23.37952208	     -8.10256054	     -3.82699734	     66.85778951	     66.85778951	      4.76519542	    -18.12637664	      7.14755139	     21.31828509	     -1.10800003	     -2.14416840	     36.21524286	     36.21524286	     21.82466418	    -18.38873608	     11.11630723	    -10.55147551	      5.28287023	      4.18204958	      3.35687826	    -12.47020575	    -12.95785713	     25.63453951	     45.97817810	      0.00000000	      0.00000000	     27.90669180	    -16.01509338	     10.44284956	     45.12354814	     46.32428836	      0.00000000	      0.00000000
     33.31228571	     -3.38837780	     -4.44366402	     -0.50295484	      1.02586166	      0.90964264	      0.37118521	     25.24128973	     -7.55334021	     -3.04998413	     67.47953068	     67.47953068	      5.07141126	    -18.13363328	      6.98211343	     20.66235634	     -1.41299664	     -2.72958554	     36.06182629	     36.06182629	     22.16766078	    -18.47424036	     11.17248624	    -10.81197283	      5.55372783	      3.99424049	     -0.14058041	    -12.34187114	    -12.72693690	     24.52840650	     45.98335624	      0.00000000	      0.00000000	     29.70864093	    -16.65227110	      9.51290791	     46.47140984	     46.45038287	      0.00000000	      0.00000000
     33.33535714	     -3.24850030	     -4.66842995	     -1.36250776	      1.02521529	      0.91081569	      0.37095374	     26.80727775	     -6.92644010	     -2.35484815	     67.13995625	     67.13995625	      5.41086255	    -18.04503404	      6.74104551	     19.86402189	     -1.77852705	     -3.32242210	     35.63452192	     35.63452192	     22.44888812	    -18.51324572	     11.32294121	    -11.12973487	      5.87925495	      3.88441434	     -3.63730258	    -12.24556101	    -12.50408969	     24.20547926	     45.95671451	      0.00000000	      0.00000000	     31.25431692	    -17.20685486	      7.93124779	     48.37598594	     46.63914796	      0.00000000	      0.00000000
     33.35842857	     -3.24401593	     -4.91996747	     -2.25749194	      1.02435917	      0.91240565	      0.37114223	     28.19998669	     -6.33257905	     -1.85492864	     65.81674737	     65.81674737	      5.59088852	    -17.88821847	      5.79620438	     19.10161528	     -2.20956445	     -4.04227143	     34.96784269	     34.96784269	     22.51063354	    -18.52247868	     11.44299689	    -11.35944157	      6.21787389	      3.70766499	     -7.07694709	    -12.18193976	    -12.22144587	     24.93596522	     45.88553115	      0.00000000	      0.00000000	     32.36301978	    -17.70216066	      5.28232792	     50.94018164	     46.92093654	      0.00000000	      0.00000000
     33.38150000	     -3.32305396	     -5.13729668	     -3.20536116	      1.02337124	      0.91450479	      0.37174914	     29.25508694	     -5.78988046	     -1.43698907	     63.33409516	     63.33409516	      5.17967215	    -17.78870470	      3.07512503	     18.21264682	     -2.60789471	     -4.79964885	     33.88825408	     33.88825408	     22.33372416	    -18.50966339	     11.25023259	    -11.50484274	      6.49550489	      3.02518028	    -10.04942714	    -12.27020191	    -11.27915540	     26.59843469	     45.75495385	      0.00000000	      0.00000000	     32.91712275	    -18.32780084	      1.36734271	     53.66641712	     47.28480150	      0.00000000	      0.00000000
     33.40457143	     -3.53614264	     -5.37700629	     -4.17369734	      1.02213440	      0.91679246	      0.37283337	     30.07599845	     -5.25799775	     -1.21763323	     59.89825688	     59.89825688	      4.81334163	    -17.47737944	      0.52790974	     17.41798276	     -3.06485698	     -5.63342800	     32.68566643	     32.68566643	     22.02909408	    -18.46779479	     11.03255882	    -11.54051473	      6.76081255	      3.02287146	    -12.56690602	    -12.27922762	    -10.53780590	     26.94616746	     45.69851482	      0.00000000	      0.00000000	     33.98032079	    -18.82844111	     -0.67896044	     56.10811087	     47.47749505	      0.00000000	      0.00000000
     33.42764286	     -4.06106859	     -5.49246810	     -5.14622335	      1.02048094	      0.91866155	      0.37437298	     31.00384778	     -4.82147587	     -1.08045884	     55.87152041	     55.87152041	      5.26501701	    -16.44635348	      0.61103350	     17.11338927	     -3.47195538	     -6.55686530	     31.72297583	     31.72297583	     21.83128732	    -18.27964082	     11.23817336	    -11.13321785	      6.85121331	      2.70111447	    -14.15795957	    -12.11267904	    -10.52172370	     26.53096972	     45.70350839	      0.00000000	      0.00000000	     35.50413849	    -20.01188034	     -1.20797044	     56.81783879	     47.53880253	      0.00000000	      0.00000000
     33.45071429	     -4.13181463	     -5.78379453	     -6.10743084	      1.01933222	      0.92180678	      0.37608502	     30.48642415	     -4.35538452	     -1.41343600	     50.05963585	     50.05963585	      2.91636039	    -16.23493890	     -6.67823618	     15.71387089	     -3.92035772	     -7.45034406	     29.68562924	     29.68562924	     20.92472285	    -18.25649496	     10.03203578	    -11.49677353	      7.16718894	      2.72271747	    -16.39884788	    -12.29614279	     -8.44907607	     28.40153184	     45.56444971	      0.00000000	      0.00000000	     35.68616156	    -20.10745677	     -4.92660266	     61.11360582	     47.82360214	      0.00000000	      0.00000000
     33.47378571	     -4.52949879	     -5.94661258	     -7.01515144	      1.01780659	      0.92403544	      0.37820476	     30.29131334	     -3.91312174	     -1.78887183	     44.37634557	     44.37634557	      2.92620916	    -14.04263005	     -6.44286909	     15.01069137	     -4.31004212	     -8.31345516	     28.26412849	     28.26412849	     20.61943893	    -18.02614210	     10.19754324	    -11.35458290	      7.32276180	      2.94964615	    -17.68706287	    -12.03735340	     -8.38816224	     28.35319121	     45.55840584	      0.00000000	      0.00000000	     37.04956602	    -20.71864040	     -5.58934639	     62.57502914	     47.89976682	      0.00000000	      0.00000000
     33.49685714	     -4.94411989	     -6.07098539	     -7.85759913	      1.01639540	      0.92592356	      0.38052813	     29.70997665	     -3.52179165	     -2.46206800	     38.20186859	     38.20186859	      2.57773325	    -11.07436005	     -6.06613584	     14.33566435	     -4.65886807	     -9.17554922	     26.86620515	     26.86620515	     20.28223927	    -17.75620799	     10.17979544	    -11.17139482	      7.46020396	      3.20873559	    -18.80093267	    -11.69658385	     -8.34409738	     28.51967437	     45.54412356	      0.00000000	      0.00000000	     38.27748853	    -21.15988408	     -6.37787239	     64.29598193	     47.98841808	      0.00000000	      0.00000000
